<svg t="1641891644758" class="icon" viewBox="0 0 1024 1024" version="1.1" xmlns="http://www.w3.org/2000/svg" p-id="25966" width="200" height="200">
	<path d="M757.3 558.5H474.4c-14.9 0-26.9-12-26.9-26.9V260.8c0-14.9 12-26.9 26.9-26.9 14.9 0 26.9 12 26.9 26.9v243.9h256c14.9 0 26.9 12 26.9 26.9 0 14.9-12 26.9-26.9 26.9z" p-id="25967">
	</path>
	<path d="M510.5 957C264.3 957 64 756.7 64 510.5S264.3 64.1 510.5 64.1 957 264.4 957 510.6C956.9 756.7 756.7 957 510.5 957z m0-839.1c-216.5 0-392.7 176.2-392.7 392.7S294 903.3 510.5 903.3s392.7-176.2 392.7-392.7S727 117.9 510.5 117.9z" p-id="25968">
	</path>
</svg>
