<svg t="1641891689883" class="icon" viewBox="0 0 1024 1024" version="1.1" xmlns="http://www.w3.org/2000/svg" p-id="33939" width="200" height="200">
	<path d="M512.256 128a72.64 72.64 0 0 1 63.872 39.04l81.152 171.168 176.32 32c27.808 4.064 51.296 25.376 58.72 53.312 8.128 25.952 2.56 53.92-14.496 74.432l-130.784 128.448 31.936 178.624a78.176 78.176 0 0 1-28.544 75.424 66.464 66.464 0 0 1-43.104 15.552c-10.784 0-22.944-3.2-34.24-9.088l-160.832-83.52-161.856 83.392a70.4 70.4 0 0 1-33.952 8.64c-15.712 0-31.04-5.184-43.2-14.656-22.656-17.632-34.272-48.192-28.928-76.032l33.12-178.336-126.88-122.816a83.2 83.2 0 0 1-19.712-78.432l0.256-0.896c8.608-26.784 29.12-46.112 54.4-51.712l181.76-34.24 79.104-166.912C459.072 144.992 484.928 128 512.288 128z m315.616 329.824c3.776-3.904 5.952-8.16 4.576-15.84a14.336 14.336 0 0 0-10.272-8.8l-208.64-37.888-94.08-198.464A8.64 8.64 0 0 0 512.256 192c-1.76 0-4.544 1.6-6.624 4.448l-94.528 198.688-211.328 39.808c-2.24 0.32-9.984 5.056-9.984 10.784 0 4 1.76 7.968 5.28 11.872l151.584 146.72-39.488 212.512c-0.768 4.128 0.736 10.368 4.48 13.28 4.48 3.456 12.736-0.64 14.08-1.28l186.624-97.504 190.208 98.784c4.544 1.92 8.384 1.92 11.456 0.096 2.944-2.08 3.616-6.72 1.952-13.92l-37.92-211.968 149.824-146.496z" p-id="33940">
	</path>
</svg>
